<svg width="26" height="32" viewBox="0 0 26 32" fill="none" xmlns="http://www.w3.org/2000/svg">
<path d="M22.2371 4.58088C21.7461 4.58088 21.2804 4.68948 20.8613 4.88261C20.577 3.3507 19.2316 2.18675 17.6185 2.18675C17.1118 2.18675 16.6316 2.30182 16.2021 2.50689C15.8464 1.0692 14.546 0 12.9999 0C11.4539 0 10.1535 1.06926 9.79777 2.50689C9.36838 2.30189 8.88811 2.18675 8.38139 2.18675C6.56234 2.18675 5.08242 3.66667 5.08242 5.48572V13.5499C4.67804 13.3726 4.23188 13.2736 3.76284 13.2736C1.94378 13.2736 0.463867 14.7535 0.463867 16.5726V23.3567C0.463867 28.1226 4.34121 32 9.10716 32H16.8927C21.6586 32 25.536 28.1226 25.536 23.3567V7.87985C25.536 6.06073 24.0561 4.58088 22.2371 4.58088ZM23.5566 23.3567C23.5566 27.0312 20.5672 30.0206 16.8927 30.0206H9.10716C5.43271 30.0206 2.44325 27.0312 2.44325 23.3567V16.5726C2.44325 15.8449 3.03522 15.253 3.76284 15.253C4.49046 15.253 5.08242 15.8449 5.08242 16.5726V21.8509H7.0618V5.48572C7.0618 4.7581 7.65377 4.16614 8.38139 4.16614C9.10901 4.16614 9.70098 4.7581 9.70098 5.48572V15.9128H11.6804V3.29897C11.6804 2.57135 12.2723 1.97938 12.9999 1.97938C13.7276 1.97938 14.3195 2.57135 14.3195 3.29897V15.9128H16.2989V5.48572C16.2989 4.7581 16.8909 4.16614 17.6185 4.16614C18.3461 4.16614 18.9381 4.7581 18.9381 5.48572V15.9128H20.9175V7.87979C20.9175 7.15217 21.5094 6.5602 22.2371 6.5602C22.9647 6.5602 23.5566 7.15217 23.5566 7.87979V23.3567Z" fill="black"/>
</svg>
