<svg width="93" height="22" viewBox="0 0 93 22" fill="none" xmlns="http://www.w3.org/2000/svg">
<path d="M3.98033 3.39252V9.22664H12.6509V12.3622H0V0.257009H12.3973V3.39252H3.98033ZM16.3523 22V17.271H1.0648V14.1612H20.3326V22H16.3523ZM20.3326 0V13.0047H16.3523V6.91355L11.1551 8.1215V4.90888L16.3523 3.70093V0H20.3326Z" fill="#F3F3F4"/>
<path d="M38.4705 0.514018V3.64953H33.0451V9.61215C33.0451 10.9229 32.893 12.1051 32.6395 13.1846L39.1297 18.0678L37.1775 21.0491L31.2451 16.5257C30.5859 17.5537 29.7493 18.4533 28.7098 19.1986C27.645 19.9439 26.3774 20.5607 24.8816 21.0748L23.1323 18.0935C24.1464 17.7336 25.0084 17.3481 25.7689 16.8855C26.5042 16.4486 27.1126 15.8832 27.6197 15.215C28.1014 14.5724 28.4563 13.8014 28.7098 12.8762C28.938 11.9766 29.0648 10.8715 29.0648 9.58645V3.64953H23.8929V0.514018H38.4705ZM44.5551 21.486H40.5748V0H44.5551V21.486Z" fill="#F3F3F4"/>
<path d="M52.4252 3.39252V9.22664H61.0958V12.3622H48.4449V0.257009H60.8422V3.39252H52.4252ZM64.7972 22V17.271H49.5097V14.1612H68.7775V22H64.7972ZM68.7775 0V13.0047H64.7972V6.91355L59.6 8.1215V4.90888L64.7972 3.70093V0H68.7775Z" fill="#F3F3F4"/>
<path d="M86.9154 0.514018V3.64953H81.49V9.61215C81.49 10.9229 81.3379 12.1051 81.0844 13.1846L87.5746 18.0678L85.6225 21.0491L79.69 16.5257C79.0308 17.5537 78.1942 18.4533 77.1547 19.1986C76.0899 19.9439 74.8223 20.5607 73.3265 21.0748L71.5772 18.0935C72.5913 17.7336 73.4533 17.3481 74.2139 16.8855C74.9491 16.4486 75.5575 15.8832 76.0646 15.215C76.5463 14.5724 76.9012 13.8014 77.1547 12.8762C77.3829 11.9766 77.5097 10.8715 77.5097 9.58645V3.64953H72.3378V0.514018H86.9154ZM93 21.486H89.0197V0H93V21.486Z" fill="#F3F3F4"/>
</svg>
