<svg width="24" height="24" viewBox="0 0 24 24" fill="none" xmlns="http://www.w3.org/2000/svg">
<path d="M24 16L16 23.9947L1.336 24C0.983314 24.0014 0.644492 23.8628 0.393981 23.6145C0.14347 23.3662 0.00176413 23.0287 0 22.676V1.324C0 0.593333 0.593333 0 1.324 0H22.676C23.4067 0 24 0.608 24 1.336V16ZM21.3333 2.66667H2.66667V21.3333H13.3333V14.6667C13.3334 14.3401 13.4533 14.0249 13.6703 13.7808C13.8873 13.5368 14.1863 13.3809 14.5107 13.3427L14.6667 13.3333L21.3333 13.332V2.66667ZM20.228 15.9987L16 16V20.2253L20.228 15.9987Z" fill="#212121"/>
</svg>
