<svg width="28" height="28" viewBox="0 0 28 28" fill="none" xmlns="http://www.w3.org/2000/svg">
<path d="M20.667 5.99999H27.3337V8.66666H24.667V26C24.667 26.3536 24.5265 26.6928 24.2765 26.9428C24.0264 27.1929 23.6873 27.3333 23.3337 27.3333H4.66699C4.31337 27.3333 3.97423 27.1929 3.72418 26.9428C3.47413 26.6928 3.33366 26.3536 3.33366 26V8.66666H0.666992V5.99999H7.33366V1.99999C7.33366 1.64637 7.47413 1.30723 7.72418 1.05718C7.97423 0.807132 8.31337 0.666656 8.66699 0.666656H19.3337C19.6873 0.666656 20.0264 0.807132 20.2765 1.05718C20.5265 1.30723 20.667 1.64637 20.667 1.99999V5.99999ZM22.0003 8.66666H6.00033V24.6667H22.0003V8.66666ZM10.0003 12.6667H12.667V20.6667H10.0003V12.6667ZM15.3337 12.6667H18.0003V20.6667H15.3337V12.6667ZM10.0003 3.33332V5.99999H18.0003V3.33332H10.0003Z" fill="#212121"/>
</svg>
