<svg width="28" height="28" viewBox="0 0 28 28" fill="none" xmlns="http://www.w3.org/2000/svg">
<path d="M1.77103 19.3125C0.491017 16.3782 0.31395 13.0803 1.27242 10.0258C3.46738 2.99652 10.9446 -0.922236 17.9739 1.27272C25.0032 3.46767 28.9219 10.9449 26.727 17.9742C24.532 25.0035 17.0548 28.9222 10.0255 26.7273C7.30695 25.8784 5.05322 24.2388 3.43937 22.1424L12.0126 20.3636L10.8203 24.1818C13.167 24.9144 15.6948 24.8139 17.9759 23.8973C20.257 22.9807 22.1515 21.3042 23.3389 19.1516C24.5263 16.999 24.9336 14.5023 24.4921 12.0839C24.0505 9.66546 22.7871 7.47381 20.9157 5.87966C19.0442 4.28551 16.6795 3.38674 14.2217 3.33539C11.7638 3.28404 9.36368 4.08325 7.42726 5.59784C5.49084 7.11242 4.13703 9.24939 3.59484 11.6472C3.05266 14.0451 3.35538 16.5566 4.45181 18.757L1.77103 19.3125Z" fill="black"/>
</svg>
