<svg width="28" height="28" viewBox="0 0 28 28" fill="none" xmlns="http://www.w3.org/2000/svg">
<path d="M14.0003 27.3333C6.63633 27.3333 0.666992 21.364 0.666992 14C0.666992 6.63601 6.63633 0.666672 14.0003 0.666672C21.3643 0.666672 27.3337 6.63601 27.3337 14C27.3337 21.364 21.3643 27.3333 14.0003 27.3333ZM14.0003 24.6667C16.8293 24.6667 19.5424 23.5429 21.5428 21.5425C23.5432 19.5421 24.667 16.829 24.667 14C24.667 11.171 23.5432 8.45792 21.5428 6.45753C19.5424 4.45714 16.8293 3.33334 14.0003 3.33334C11.1713 3.33334 8.45824 4.45714 6.45785 6.45753C4.45747 8.45792 3.33366 11.171 3.33366 14C3.33366 16.829 4.45747 19.5421 6.45785 21.5425C8.45824 23.5429 11.1713 24.6667 14.0003 24.6667ZM7.33366 15.3333H10.0003C10.0003 16.3942 10.4218 17.4116 11.1719 18.1618C11.922 18.9119 12.9395 19.3333 14.0003 19.3333C15.0612 19.3333 16.0786 18.9119 16.8288 18.1618C17.5789 17.4116 18.0003 16.3942 18.0003 15.3333H20.667C20.667 17.1014 19.9646 18.7971 18.7144 20.0474C17.4641 21.2976 15.7684 22 14.0003 22C12.2322 22 10.5365 21.2976 9.28628 20.0474C8.03604 18.7971 7.33366 17.1014 7.33366 15.3333ZM8.66699 12.6667C8.13656 12.6667 7.62785 12.456 7.25278 12.0809C6.87771 11.7058 6.66699 11.1971 6.66699 10.6667C6.66699 10.1362 6.87771 9.62753 7.25278 9.25246C7.62785 8.87739 8.13656 8.66667 8.66699 8.66667C9.19743 8.66667 9.70613 8.87739 10.0812 9.25246C10.4563 9.62753 10.667 10.1362 10.667 10.6667C10.667 11.1971 10.4563 11.7058 10.0812 12.0809C9.70613 12.456 9.19743 12.6667 8.66699 12.6667ZM19.3337 12.6667C18.8032 12.6667 18.2945 12.456 17.9194 12.0809C17.5444 11.7058 17.3337 11.1971 17.3337 10.6667C17.3337 10.1362 17.5444 9.62753 17.9194 9.25246C18.2945 8.87739 18.8032 8.66667 19.3337 8.66667C19.8641 8.66667 20.3728 8.87739 20.7479 9.25246C21.1229 9.62753 21.3337 10.1362 21.3337 10.6667C21.3337 11.1971 21.1229 11.7058 20.7479 12.0809C20.3728 12.456 19.8641 12.6667 19.3337 12.6667Z" fill="#212121"/>
</svg>
