<svg width="28" height="28" viewBox="0 0 28 28" fill="none" xmlns="http://www.w3.org/2000/svg">
<path fill-rule="evenodd" clip-rule="evenodd" d="M6.5 7.75V24C6.5 24.6904 7.05964 25.25 7.75 25.25H20.25C20.9404 25.25 21.5 24.6904 21.5 24V7.75H24V24C24 26.0711 22.3211 27.75 20.25 27.75H7.75C5.67893 27.75 4 26.0711 4 24V7.75H6.5Z" fill="#0F0B1B"/>
<path fill-rule="evenodd" clip-rule="evenodd" d="M19 6.5L19 4C19 3.30964 18.4404 2.75 17.75 2.75L10.25 2.75C9.55965 2.75 9 3.30964 9 4L9 6.5L6.5 6.5L6.5 4C6.5 1.92893 8.17893 0.25 10.25 0.25L17.75 0.250001C19.8211 0.250001 21.5 1.92893 21.5 4L21.5 6.5L19 6.5Z" fill="#0F0B1B"/>
<path fill-rule="evenodd" clip-rule="evenodd" d="M0.25 6.5C0.25 5.80964 0.809644 5.25 1.5 5.25H26.5C27.1904 5.25 27.75 5.80964 27.75 6.5C27.75 7.19036 27.1904 7.75 26.5 7.75H1.5C0.809644 7.75 0.25 7.19036 0.25 6.5Z" fill="#0F0B1B"/>
<path fill-rule="evenodd" clip-rule="evenodd" d="M11.5 11.5C12.1904 11.5 12.75 12.0596 12.75 12.75L12.75 20.25C12.75 20.9404 12.1904 21.5 11.5 21.5C10.8096 21.5 10.25 20.9404 10.25 20.25L10.25 12.75C10.25 12.0596 10.8096 11.5 11.5 11.5Z" fill="#0F0B1B"/>
<path fill-rule="evenodd" clip-rule="evenodd" d="M16.5 11.5C17.1904 11.5 17.75 12.0596 17.75 12.75L17.75 20.25C17.75 20.9404 17.1904 21.5 16.5 21.5C15.8096 21.5 15.25 20.9404 15.25 20.25L15.25 12.75C15.25 12.0596 15.8096 11.5 16.5 11.5Z" fill="#0F0B1B"/>
</svg>
